<?xml version="1.0" encoding="utf-8"?>
<!-- Generator: Adobe Illustrator 21.0.0, SVG Export Plug-In . SVG Version: 6.00 Build 0)  -->
<svg version="1.1" id="Layer_1" xmlns="http://www.w3.org/2000/svg" xmlns:xlink="http://www.w3.org/1999/xlink" x="0px" y="0px"
	 viewBox="0 0 260.5 239.7" style="enable-background:new 0 0 260.5 239.7;" xml:space="preserve">
<style type="text/css">
	.st0{fill:url(#SVGID_1_);}
	.st1{fill:#F08D20;}
	.st2{fill:url(#SVGID_2_);}
	.st3{fill:#F8F9F9;}
	.st4{opacity:0.8;fill:none;stroke:#F8F9F9;stroke-width:8;stroke-miterlimit:10;}
	.st5{opacity:0.6;fill:none;stroke:#F8F9F9;stroke-width:6;stroke-miterlimit:10;}
	.st6{opacity:0.4;fill:none;stroke:#F8F9F9;stroke-width:3;stroke-miterlimit:10;}
	.st7{fill:#FFFFFF;}
	.st8{fill:#CCCBCB;}
	.st9{fill:url(#SVGID_3_);}
	.st10{fill:url(#SVGID_4_);}
	.st11{fill:url(#SVGID_5_);}
	.st12{fill:url(#SVGID_6_);}
	.st13{fill:url(#SVGID_7_);}
	.st14{fill:url(#SVGID_8_);}
	.st15{fill:url(#SVGID_9_);}
	.st16{fill:url(#SVGID_10_);}
	.st17{fill:url(#SVGID_11_);}
	.st18{fill:url(#SVGID_12_);}
	.st19{fill:url(#SVGID_13_);}
	.st20{fill:url(#SVGID_14_);}
	.st21{fill:url(#SVGID_15_);}
	.st22{fill:url(#SVGID_16_);}
	.st23{fill:url(#SVGID_17_);}
	.st24{fill:url(#SVGID_18_);}
	.st25{fill:url(#SVGID_19_);}
	.st26{fill:url(#SVGID_20_);}
	.st27{fill:url(#SVGID_21_);}
	.st28{fill:url(#SVGID_22_);}
	.st29{fill:url(#SVGID_23_);}
	.st30{fill:url(#SVGID_24_);}
	.st31{fill:url(#SVGID_25_);}
	.st32{fill:url(#SVGID_26_);}
	.st33{fill:url(#SVGID_27_);}
	.st34{fill:url(#SVGID_28_);}
	.st35{fill:url(#SVGID_29_);}
	.st36{fill:url(#SVGID_30_);}
	.st37{fill:url(#SVGID_31_);}
	.st38{fill:url(#SVGID_32_);}
	.st39{fill:url(#SVGID_33_);}
	.st40{fill:url(#SVGID_34_);}
	.st41{fill:url(#SVGID_35_);}
	.st42{fill:url(#SVGID_36_);}
	.st43{fill:url(#SVGID_37_);}
	.st44{fill:url(#SVGID_38_);}
	.st45{fill:url(#SVGID_39_);}
	.st46{fill:url(#SVGID_40_);}
	.st47{fill:url(#SVGID_41_);}
	.st48{fill:url(#SVGID_42_);}
	.st49{fill:url(#SVGID_43_);}
	.st50{fill:url(#SVGID_44_);}
	.st51{fill:url(#SVGID_45_);}
	.st52{fill:url(#SVGID_46_);}
	.st53{fill:url(#SVGID_47_);}
	.st54{fill:url(#SVGID_48_);}
	.st55{fill:url(#SVGID_49_);}
	.st56{fill:url(#SVGID_50_);}
	.st57{fill:url(#SVGID_51_);}
	.st58{fill:url(#SVGID_52_);}
	.st59{fill:url(#SVGID_53_);}
	.st60{fill:url(#SVGID_54_);}
	.st61{fill:url(#SVGID_55_);}
	.st62{fill:url(#SVGID_56_);}
	.st63{fill:url(#SVGID_57_);}
	.st64{fill:url(#SVGID_58_);}
	.st65{fill:url(#SVGID_59_);}
	.st66{fill:url(#SVGID_60_);}
	.st67{fill:url(#SVGID_61_);}
	.st68{fill:url(#SVGID_62_);}
	.st69{fill:url(#SVGID_63_);}
	.st70{fill:url(#SVGID_64_);}
	.st71{fill:url(#SVGID_65_);}
	.st72{fill:url(#SVGID_66_);}
	.st73{fill:url(#SVGID_67_);}
	.st74{fill:url(#SVGID_68_);}
	.st75{fill:url(#SVGID_69_);}
	.st76{fill:url(#SVGID_70_);}
	.st77{fill:url(#SVGID_71_);}
	.st78{fill:url(#SVGID_72_);}
	.st79{fill:url(#SVGID_73_);}
	.st80{fill:url(#SVGID_74_);}
	.st81{fill:url(#SVGID_75_);}
	.st82{fill:url(#SVGID_76_);}
	.st83{fill:url(#SVGID_77_);}
	.st84{fill:url(#SVGID_78_);}
	.st85{fill:url(#SVGID_79_);}
	.st86{fill:url(#SVGID_80_);}
	.st87{fill:url(#SVGID_81_);}
	.st88{fill:url(#SVGID_82_);}
	.st89{fill:url(#SVGID_83_);}
	.st90{fill:url(#SVGID_84_);}
	.st91{fill:url(#SVGID_85_);}
	.st92{fill:url(#SVGID_86_);}
	.st93{fill:url(#SVGID_87_);}
	.st94{fill:url(#SVGID_88_);}
	.st95{fill:url(#SVGID_89_);}
	.st96{fill:url(#SVGID_90_);}
	.st97{fill:url(#SVGID_91_);}
	.st98{fill:url(#SVGID_92_);}
	.st99{fill:url(#SVGID_93_);}
	.st100{fill:url(#SVGID_94_);}
	.st101{fill:url(#SVGID_95_);}
	.st102{fill:url(#SVGID_96_);}
	.st103{fill:url(#SVGID_97_);}
	.st104{fill:url(#SVGID_98_);}
	.st105{fill:url(#SVGID_99_);}
	.st106{fill:url(#SVGID_100_);}
	.st107{fill:url(#SVGID_101_);}
	.st108{fill:url(#SVGID_102_);}
	.st109{fill:url(#SVGID_103_);}
	.st110{fill:url(#SVGID_104_);}
	.st111{fill:url(#SVGID_105_);}
	.st112{fill:url(#SVGID_106_);}
	.st113{fill:url(#SVGID_107_);}
	.st114{fill:url(#SVGID_108_);}
	.st115{fill:url(#SVGID_109_);}
	.st116{fill:url(#SVGID_110_);}
	.st117{fill:url(#SVGID_111_);}
	.st118{fill:url(#SVGID_112_);}
	.st119{fill:url(#SVGID_113_);}
	.st120{fill:url(#SVGID_114_);}
	.st121{fill:url(#SVGID_115_);}
	.st122{fill:url(#SVGID_116_);}
	.st123{fill:url(#SVGID_117_);}
	.st124{fill:url(#SVGID_118_);}
	.st125{fill:url(#SVGID_119_);}
	.st126{fill:url(#SVGID_120_);}
	.st127{fill:url(#SVGID_121_);}
	.st128{fill:url(#SVGID_122_);}
	.st129{fill:url(#SVGID_123_);}
	.st130{fill:url(#SVGID_124_);}
	.st131{fill:url(#SVGID_125_);}
	.st132{fill:url(#SVGID_126_);}
	.st133{fill:url(#SVGID_127_);}
	.st134{fill:url(#SVGID_128_);}
	.st135{fill:url(#SVGID_129_);}
	.st136{fill:url(#SVGID_130_);}
	.st137{fill:url(#SVGID_131_);}
	.st138{fill:url(#SVGID_132_);}
	.st139{fill:url(#SVGID_133_);}
	.st140{fill:url(#SVGID_134_);}
	.st141{fill:url(#SVGID_135_);}
	.st142{fill:url(#SVGID_136_);}
	.st143{fill:url(#SVGID_137_);}
	.st144{fill:url(#SVGID_138_);}
	.st145{fill:url(#SVGID_139_);}
	.st146{fill:url(#SVGID_140_);}
	.st147{fill:url(#SVGID_141_);}
	.st148{fill:url(#SVGID_142_);}
	.st149{fill:url(#SVGID_143_);}
	.st150{fill:url(#SVGID_144_);}
	.st151{fill:url(#SVGID_145_);}
	.st152{fill:url(#SVGID_146_);}
	.st153{fill:url(#SVGID_147_);}
	.st154{fill:url(#SVGID_148_);}
	.st155{fill:url(#SVGID_149_);}
	.st156{fill:url(#SVGID_150_);}
	.st157{fill:url(#SVGID_151_);}
	.st158{fill:url(#SVGID_152_);}
	.st159{fill:url(#SVGID_153_);}
	.st160{fill:url(#SVGID_154_);}
	.st161{fill:url(#SVGID_155_);}
	.st162{fill:url(#SVGID_156_);}
	.st163{fill:url(#SVGID_157_);}
	.st164{fill:url(#SVGID_158_);}
	.st165{fill:url(#SVGID_159_);}
	.st166{fill:url(#SVGID_160_);}
	.st167{fill:url(#SVGID_161_);}
	.st168{fill:url(#SVGID_162_);}
	.st169{fill:url(#SVGID_163_);}
	.st170{fill:url(#SVGID_164_);}
	.st171{fill:url(#SVGID_165_);}
	.st172{fill:url(#SVGID_166_);}
	.st173{fill:#E1E1E1;}
	.st174{opacity:0.65;}
	.st175{opacity:0.4;}
	.st176{opacity:0.15;}
	.st177{opacity:8.000000e-02;}
	.st178{opacity:0;}
	.st179{opacity:0.5;}
	.st180{opacity:0.3;}
	.st181{opacity:0.1;}
	.st182{opacity:0.65;fill:#E1E1E1;}
	.st183{opacity:0.4;fill:#E1E1E1;}
	.st184{opacity:0.15;fill:#E1E1E1;}
	.st185{opacity:0.3;fill:#E1E1E1;}
	.st186{opacity:8.000000e-02;fill:#E1E1E1;}
	.st187{opacity:0;fill:#E1E1E1;}
	.st188{opacity:0.5;fill:#E1E1E1;}
	.st189{opacity:0.1;fill:#E1E1E1;}
	.st190{opacity:0.2;fill:#E1E1E1;}
	.st191{fill:#FFB527;}
	.st192{fill:#FC9206;}
	.st193{fill:#EB5E1F;}
	.st194{fill:#7C8E9B;}
	.st195{fill:#F8FCFF;}
	.st196{fill:#0C293A;}
	.st197{fill:#F1F6F8;}
	.st198{fill:#5ABB7B;}
	.st199{fill:#40A161;}
	.st200{fill:#FF5B4F;}
	.st201{fill:#6D6E70;}
	.st202{fill:none;stroke:#7C8E9B;stroke-miterlimit:10;}
	.st203{fill:url(#SVGID_167_);}
	.st204{fill:url(#SVGID_168_);}
	.st205{fill:url(#SVGID_169_);}
	.st206{fill:#FCA737;}
	.st207{opacity:0.7;fill:#F7A64D;}
	.st208{fill:none;stroke:#E78524;stroke-width:14;stroke-linecap:round;stroke-linejoin:round;stroke-miterlimit:10;}
	.st209{fill:#E78524;}
	.st210{opacity:0.26;fill:#FF5B4F;}
	.st211{fill:#D0D2D3;}
	.st212{fill:url(#SVGID_170_);}
	.st213{fill:url(#SVGID_171_);}
	.st214{fill:#DCDCDC;}
	.st215{fill:#FDC84F;}
	.st216{fill:url(#SVGID_172_);}
	.st217{fill:url(#SVGID_173_);}
	.st218{fill:url(#SVGID_174_);}
	.st219{fill:#E5504C;}
	.st220{fill:url(#SVGID_175_);}
	.st221{fill:url(#SVGID_176_);}
	.st222{fill:url(#SVGID_177_);}
	.st223{fill:url(#SVGID_178_);}
	.st224{fill:url(#SVGID_179_);}
	.st225{fill:url(#SVGID_180_);}
	.st226{fill:url(#SVGID_181_);}
	.st227{fill:url(#SVGID_182_);}
	.st228{fill:url(#SVGID_183_);}
	.st229{fill:url(#SVGID_184_);}
	.st230{fill:url(#SVGID_185_);}
	.st231{fill:#F49B31;}
	.st232{fill:url(#SVGID_186_);}
	.st233{fill:#DDDDDD;}
	.st234{fill:url(#SVGID_187_);}
	.st235{fill:url(#SVGID_188_);}
	.st236{fill:none;stroke:url(#SVGID_189_);stroke-width:7;stroke-linecap:round;stroke-linejoin:round;stroke-miterlimit:10;}
	.st237{fill:url(#SVGID_190_);}
	.st238{fill:url(#SVGID_191_);}
	.st239{fill:url(#SVGID_192_);}
	.st240{fill:url(#SVGID_193_);}
</style>
<circle class="st200" cx="13.7" cy="226.2" r="9.8"/>
<circle class="st198" cx="60.3" cy="41.9" r="9"/>
<circle class="st211" cx="231.9" cy="67.5" r="19.1"/>
<g>
	<path class="st206" d="M129.9,203.4H43.1v-76.9c0-6.6,5.4-12,12-12h74.9c6.6,0,12,5.4,12,12v64.9
		C141.9,198,136.5,203.4,129.9,203.4z"/>
	<path class="st206" d="M132.7,203.4h86.9v-76.9c0-6.6-5.4-12-12-12h-74.9c-6.6,0-12,5.4-12,12v64.9
		C120.7,198,126.1,203.4,132.7,203.4z"/>
</g>
<g>
	<path class="st7" d="M86.8,140.3H59.9c-1.5,0-2.7-1.2-2.7-2.8v-0.8c0-1.5,1.2-2.7,2.7-2.7h26.9c1.5,0,2.7,1.2,2.7,2.7v0.8
		C89.6,139,88.3,140.3,86.8,140.3z"/>
	<path class="st7" d="M86.8,173.1H59.9c-1.5,0-2.7-1.2-2.7-2.8v-0.8c0-1.5,1.2-2.8,2.7-2.8h26.9c1.5,0,2.7,1.2,2.7,2.8v0.8
		C89.6,171.9,88.3,173.1,86.8,173.1z"/>
	<path class="st7" d="M86.8,189.5H59.9c-1.5,0-2.7-1.2-2.7-2.8V186c0-1.5,1.2-2.8,2.7-2.8h26.9c1.5,0,2.7,1.2,2.7,2.8v0.8
		C89.6,188.3,88.3,189.5,86.8,189.5z"/>
	<path class="st7" d="M86.8,156.7H59.9c-1.5,0-2.7-1.2-2.7-2.8v-0.8c0-1.5,1.2-2.8,2.7-2.8h26.9c1.5,0,2.7,1.2,2.7,2.8v0.8
		C89.6,155.4,88.3,156.7,86.8,156.7z"/>
</g>
<g>
	<path class="st7" d="M201.8,140.3h-26.9c-1.5,0-2.8-1.2-2.8-2.8v-0.8c0-1.5,1.2-2.7,2.8-2.7h26.9c1.5,0,2.8,1.2,2.8,2.7v0.8
		C204.6,139,203.3,140.3,201.8,140.3z"/>
	<path class="st7" d="M201.8,173.1h-26.9c-1.5,0-2.8-1.2-2.8-2.8v-0.8c0-1.5,1.2-2.8,2.8-2.8h26.9c1.5,0,2.8,1.2,2.8,2.8v0.8
		C204.6,171.9,203.3,173.1,201.8,173.1z"/>
	<path class="st7" d="M201.8,189.5h-26.9c-1.5,0-2.8-1.2-2.8-2.8V186c0-1.5,1.2-2.8,2.8-2.8h26.9c1.5,0,2.8,1.2,2.8,2.8v0.8
		C204.6,188.3,203.3,189.5,201.8,189.5z"/>
	<path class="st7" d="M201.8,156.7h-26.9c-1.5,0-2.8-1.2-2.8-2.8v-0.8c0-1.5,1.2-2.8,2.8-2.8h26.9c1.5,0,2.8,1.2,2.8,2.8v0.8
		C204.6,155.4,203.3,156.7,201.8,156.7z"/>
</g>
<linearGradient id="SVGID_1_" gradientUnits="userSpaceOnUse" x1="81.3115" y1="130.1575" x2="180.1764" y2="130.1575">
	<stop  offset="0" style="stop-color:#FFC24E"/>
	<stop  offset="1" style="stop-color:#FFBB38"/>
</linearGradient>
<path class="st0" d="M180.2,203.4H81.3V68.9c0-6.6,5.4-12,12-12h74.9c6.6,0,12,5.4,12,12V203.4z"/>
<g>
	<path class="st7" d="M160.8,123.4h-22.4c-1.7,0-3.1-1.4-3.1-3.1v0c0-1.7,1.4-3.1,3.1-3.1h22.4c1.7,0,3.1,1.4,3.1,3.1l0,0
		C163.9,122,162.5,123.4,160.8,123.4z"/>
	<path class="st7" d="M160.8,139.6h-22.4c-1.7,0-3.1-1.4-3.1-3.1v0c0-1.7,1.4-3.1,3.1-3.1h22.4c1.7,0,3.1,1.4,3.1,3.1v0
		C163.9,138.2,162.5,139.6,160.8,139.6z"/>
	<path class="st7" d="M160.8,107.3h-22.4c-1.7,0-3.1-1.4-3.1-3.1v0c0-1.7,1.4-3.1,3.1-3.1h22.4c1.7,0,3.1,1.4,3.1,3.1v0
		C163.9,105.9,162.5,107.3,160.8,107.3z"/>
	<path class="st7" d="M160.8,91.1h-22.4c-1.7,0-3.1-1.4-3.1-3.1v0c0-1.7,1.4-3.1,3.1-3.1h22.4c1.7,0,3.1,1.4,3.1,3.1v0
		C163.9,89.7,162.5,91.1,160.8,91.1z"/>
	<path class="st7" d="M160.8,155.8h-22.4c-1.7,0-3.1-1.4-3.1-3.1l0,0c0-1.7,1.4-3.1,3.1-3.1h22.4c1.7,0,3.1,1.4,3.1,3.1l0,0
		C163.9,154.4,162.5,155.8,160.8,155.8z"/>
	<path class="st7" d="M160.8,188.1h-22.4c-1.7,0-3.1-1.4-3.1-3.1v0c0-1.7,1.4-3.1,3.1-3.1h22.4c1.7,0,3.1,1.4,3.1,3.1v0
		C163.9,186.7,162.5,188.1,160.8,188.1z"/>
	<path class="st7" d="M160.8,171.9h-22.4c-1.7,0-3.1-1.4-3.1-3.1l0,0c0-1.7,1.4-3.1,3.1-3.1h22.4c1.7,0,3.1,1.4,3.1,3.1l0,0
		C163.9,170.5,162.5,171.9,160.8,171.9z"/>
</g>
<g>
	<path class="st7" d="M123.6,123.4h-22.4c-1.7,0-3.1-1.4-3.1-3.1v0c0-1.7,1.4-3.1,3.1-3.1h22.4c1.7,0,3.1,1.4,3.1,3.1l0,0
		C126.7,122,125.3,123.4,123.6,123.4z"/>
	<path class="st7" d="M123.6,139.6h-22.4c-1.7,0-3.1-1.4-3.1-3.1v0c0-1.7,1.4-3.1,3.1-3.1h22.4c1.7,0,3.1,1.4,3.1,3.1v0
		C126.7,138.2,125.3,139.6,123.6,139.6z"/>
	<path class="st7" d="M123.6,107.3h-22.4c-1.7,0-3.1-1.4-3.1-3.1v0c0-1.7,1.4-3.1,3.1-3.1h22.4c1.7,0,3.1,1.4,3.1,3.1v0
		C126.7,105.9,125.3,107.3,123.6,107.3z"/>
	<path class="st7" d="M123.6,91.1h-22.4c-1.7,0-3.1-1.4-3.1-3.1v0c0-1.7,1.4-3.1,3.1-3.1h22.4c1.7,0,3.1,1.4,3.1,3.1v0
		C126.7,89.7,125.3,91.1,123.6,91.1z"/>
	<path class="st7" d="M123.6,155.8h-22.4c-1.7,0-3.1-1.4-3.1-3.1l0,0c0-1.7,1.4-3.1,3.1-3.1h22.4c1.7,0,3.1,1.4,3.1,3.1l0,0
		C126.7,154.4,125.3,155.8,123.6,155.8z"/>
	<path class="st7" d="M123.6,188.1h-22.4c-1.7,0-3.1-1.4-3.1-3.1v0c0-1.7,1.4-3.1,3.1-3.1h22.4c1.7,0,3.1,1.4,3.1,3.1v0
		C126.7,186.7,125.3,188.1,123.6,188.1z"/>
	<path class="st7" d="M123.6,171.9h-22.4c-1.7,0-3.1-1.4-3.1-3.1l0,0c0-1.7,1.4-3.1,3.1-3.1h22.4c1.7,0,3.1,1.4,3.1,3.1l0,0
		C126.7,170.5,125.3,171.9,123.6,171.9z"/>
</g>
<linearGradient id="SVGID_2_" gradientUnits="userSpaceOnUse" x1="30.4637" y1="209.379" x2="230" y2="209.379">
	<stop  offset="0" style="stop-color:#FFC24E"/>
	<stop  offset="1" style="stop-color:#FFBB38"/>
</linearGradient>
<path class="st2" d="M224.8,215.3h-189c-2.9,0-5.2-2.4-5.2-5.2v-1.4c0-2.9,2.4-5.2,5.2-5.2h189c2.9,0,5.2,2.4,5.2,5.2v1.4
	C230,213,227.6,215.3,224.8,215.3z"/>
</svg>
