<svg xmlns="http://www.w3.org/2000/svg" xmlns:xlink="http://www.w3.org/1999/xlink" viewBox="0 0 228.48 228.47"><defs><style>.cls-1{fill:#dcdcdc;}.cls-2{fill:#ff5b4f;}.cls-3{fill:url(#linear-gradient);}.cls-4{fill:url(#linear-gradient-2);}.cls-5{fill:#fca737;}.cls-6{fill:#f49e37;fill-rule:evenodd;}.cls-7{fill:url(#linear-gradient-3);}.cls-8{fill:url(#linear-gradient-4);}.cls-9{fill:url(#linear-gradient-5);}</style><linearGradient id="linear-gradient" x1="191.82" y1="18.33" x2="228.48" y2="18.33" gradientUnits="userSpaceOnUse"><stop offset="0" stop-color="#5abb7b"/><stop offset="0.64" stop-color="#2c9b69"/><stop offset="1" stop-color="#178d61"/></linearGradient><linearGradient id="linear-gradient-2" x1="124.04" y1="59.5" x2="124.04" y2="172.99" gradientUnits="userSpaceOnUse"><stop offset="0" stop-color="#ffd467"/><stop offset="1" stop-color="#ffc436"/></linearGradient><linearGradient id="linear-gradient-3" x1="30.32" y1="193.06" x2="218.02" y2="30.78" xlink:href="#linear-gradient-2"/><linearGradient id="linear-gradient-4" x1="33.56" y1="196.81" x2="221.26" y2="34.53" xlink:href="#linear-gradient-2"/><linearGradient id="linear-gradient-5" x1="37.03" y1="200.83" x2="224.74" y2="38.54" xlink:href="#linear-gradient-2"/></defs><title>iot_1</title><g id="Layer_2" data-name="Layer 2"><g id="Layer_1-2" data-name="Layer 1"><circle class="cls-1" cx="146.49" cy="215.64" r="12.84"/><circle class="cls-2" cx="6.52" cy="116.22" r="6.52"/><circle class="cls-3" cx="210.15" cy="18.33" r="18.33"/><rect class="cls-4" x="66.56" y="59.5" width="114.96" height="113.48" rx="19.3"/><path class="cls-5" d="M207.35,164.15a2,2,0,0,1-2,2h-15c-5-.13-11-4.35-12.67-15.8-1.09-7.31-6.7-7-6.94-7H159.86a2,2,0,0,1,0-3.93h10.66c3.3-.2,9.75,1.69,11,10.31,1.11,7.45,4.58,12.35,8.84,12.46h15A2,2,0,0,1,207.35,164.15Z"/><circle class="cls-5" cx="203.97" cy="164.15" r="7.58"/><path class="cls-5" d="M207.35,69.08a2,2,0,0,0-2-2h-15c-5,.13-11,4.35-12.67,15.8-1.09,7.3-6.7,7-6.94,7H159.86a2,2,0,0,0,0,3.93h10.66c3.3.2,9.75-1.69,11-10.31C182.67,76,186.14,71.15,190.4,71h15A2,2,0,0,0,207.35,69.08Z"/><circle class="cls-5" cx="203.97" cy="69.08" r="7.58"/><path class="cls-2" d="M210.15,116.44c0,1.08-.61,2-1.37,2H158.39c-.76,0-1.37-.88-1.37-2s.61-2,1.37-2h50.39C209.54,114.48,210.15,115.36,210.15,116.44Z"/><circle class="cls-2" cx="203.97" cy="117.01" r="7.58"/><path class="cls-5" d="M41.11,69.08a2,2,0,0,1,2-2h15c5,.13,11,4.35,12.67,15.8,1.09,7.3,6.7,7,6.94,7H88.6a2,2,0,1,1,0,3.93H77.94c-3.3.2-9.74-1.69-11-10.31C65.79,76,62.32,71.15,58.07,71h-15A2,2,0,0,1,41.11,69.08Z"/><circle class="cls-5" cx="44.49" cy="69.08" r="7.58"/><path class="cls-5" d="M41.11,164.15a2,2,0,0,0,2,2h15c5-.13,11-4.35,12.67-15.8,1.09-7.31,6.7-7,6.94-7H88.6a2,2,0,1,0,0-3.93H77.94c-3.3-.2-9.74,1.69-11,10.31-1.12,7.45-4.59,12.35-8.84,12.46h-15A2,2,0,0,0,41.11,164.15Z"/><circle class="cls-5" cx="44.49" cy="164.15" r="7.58"/><path class="cls-2" d="M38.31,116.79c0-1.08.62-2,1.37-2H90.07c.76,0,1.38.88,1.38,2s-.62,2-1.38,2H39.68C38.93,118.75,38.31,117.87,38.31,116.79Z"/><circle class="cls-2" cx="44.49" cy="116.22" r="7.58"/><path class="cls-6" d="M151.64,108.46a1.87,1.87,0,0,0-2-1.09,6.33,6.33,0,0,1-6.07-10.17,1.6,1.6,0,0,0-.18-2.16,28.66,28.66,0,0,0-5.23-3.79,1.6,1.6,0,0,0-2.12.53,6.61,6.61,0,0,1-6.8,2.75A6.36,6.36,0,0,1,124.36,89a1.6,1.6,0,0,0-1.67-1.43,28.63,28.63,0,0,0-6.36,1,1.59,1.59,0,0,0-1.14,1.85,6.36,6.36,0,0,1-2.88,6.67,6.6,6.6,0,0,1-7.26-.44,1.62,1.62,0,0,0-2.17.18,29.14,29.14,0,0,0-3.83,5.28,1.6,1.6,0,0,0,.52,2.12,6.35,6.35,0,0,1,2.75,6.8,6.63,6.63,0,0,1-5.52,4.84,1.56,1.56,0,0,0-1.41,1.66,28.86,28.86,0,0,0,1,6.44,1.89,1.89,0,0,0,2.09,1.08A6.29,6.29,0,0,1,105,128a6.4,6.4,0,0,1-.43,7.26,1.59,1.59,0,0,0,.18,2.16,29,29,0,0,0,5.22,3.79,1.61,1.61,0,0,0,2.13-.53,6.61,6.61,0,0,1,6.79-2.75,6.36,6.36,0,0,1,4.84,5.51,1.58,1.58,0,0,0,1.66,1.42,28,28,0,0,0,3.29-.35,27.32,27.32,0,0,0,3.08-.68,1.58,1.58,0,0,0,1.13-1.85,6.37,6.37,0,0,1,2.88-6.67,6.61,6.61,0,0,1,7.27.43,1.61,1.61,0,0,0,2.17-.17,28.8,28.8,0,0,0,3.83-5.28,1.6,1.6,0,0,0-.53-2.12,6.36,6.36,0,0,1-2.75-6.8,6.44,6.44,0,0,1,5.16-4.79l.35,0a1.6,1.6,0,0,0,1.43-1.66A28.86,28.86,0,0,0,151.64,108.46Z"/><path class="cls-7" d="M109,110.18a2.43,2.43,0,1,0,3.43,3.43,16.77,16.77,0,0,1,23.69,0,2.42,2.42,0,1,0,3.42-3.43A21.62,21.62,0,0,0,109,110.18Z"/><path class="cls-8" d="M115.51,116.73a2.43,2.43,0,0,0,3.43,3.43,7.48,7.48,0,0,1,10.58,0,2.42,2.42,0,1,0,3.42-3.42A12.32,12.32,0,0,0,115.51,116.73Z"/><circle class="cls-9" cx="124.23" cy="125.44" r="3.23"/></g></g></svg>