<?xml version="1.0" encoding="utf-8"?>
<!-- Generator: Adobe Illustrator 21.0.0, SVG Export Plug-In . SVG Version: 6.00 Build 0)  -->
<svg version="1.1" id="Layer_1" xmlns="http://www.w3.org/2000/svg" xmlns:xlink="http://www.w3.org/1999/xlink" x="0px" y="0px"
	 viewBox="0 0 230.8 239.7" style="enable-background:new 0 0 230.8 239.7;" xml:space="preserve">
<style type="text/css">
	.st0{fill:url(#SVGID_1_);}
	.st1{fill:#F08D20;}
	.st2{fill:url(#SVGID_2_);}
	.st3{fill:#F8F9F9;}
	.st4{opacity:0.8;fill:none;stroke:#F8F9F9;stroke-width:8;stroke-miterlimit:10;}
	.st5{opacity:0.6;fill:none;stroke:#F8F9F9;stroke-width:6;stroke-miterlimit:10;}
	.st6{opacity:0.4;fill:none;stroke:#F8F9F9;stroke-width:3;stroke-miterlimit:10;}
	.st7{fill:#FFFFFF;}
	.st8{fill:#CCCBCB;}
	.st9{fill:url(#SVGID_3_);}
	.st10{fill:url(#SVGID_4_);}
	.st11{fill:url(#SVGID_5_);}
	.st12{fill:url(#SVGID_6_);}
	.st13{fill:url(#SVGID_7_);}
	.st14{fill:url(#SVGID_8_);}
	.st15{fill:url(#SVGID_9_);}
	.st16{fill:url(#SVGID_10_);}
	.st17{fill:url(#SVGID_11_);}
	.st18{fill:url(#SVGID_12_);}
	.st19{fill:url(#SVGID_13_);}
	.st20{fill:url(#SVGID_14_);}
	.st21{fill:url(#SVGID_15_);}
	.st22{fill:url(#SVGID_16_);}
	.st23{fill:url(#SVGID_17_);}
	.st24{fill:url(#SVGID_18_);}
	.st25{fill:url(#SVGID_19_);}
	.st26{fill:url(#SVGID_20_);}
	.st27{fill:url(#SVGID_21_);}
	.st28{fill:url(#SVGID_22_);}
	.st29{fill:url(#SVGID_23_);}
	.st30{fill:url(#SVGID_24_);}
	.st31{fill:url(#SVGID_25_);}
	.st32{fill:url(#SVGID_26_);}
	.st33{fill:url(#SVGID_27_);}
	.st34{fill:url(#SVGID_28_);}
	.st35{fill:url(#SVGID_29_);}
	.st36{fill:url(#SVGID_30_);}
	.st37{fill:url(#SVGID_31_);}
	.st38{fill:url(#SVGID_32_);}
	.st39{fill:url(#SVGID_33_);}
	.st40{fill:url(#SVGID_34_);}
	.st41{fill:url(#SVGID_35_);}
	.st42{fill:url(#SVGID_36_);}
	.st43{fill:url(#SVGID_37_);}
	.st44{fill:url(#SVGID_38_);}
	.st45{fill:url(#SVGID_39_);}
	.st46{fill:url(#SVGID_40_);}
	.st47{fill:url(#SVGID_41_);}
	.st48{fill:url(#SVGID_42_);}
	.st49{fill:url(#SVGID_43_);}
	.st50{fill:url(#SVGID_44_);}
	.st51{fill:url(#SVGID_45_);}
	.st52{fill:url(#SVGID_46_);}
	.st53{fill:url(#SVGID_47_);}
	.st54{fill:url(#SVGID_48_);}
	.st55{fill:url(#SVGID_49_);}
	.st56{fill:url(#SVGID_50_);}
	.st57{fill:url(#SVGID_51_);}
	.st58{fill:url(#SVGID_52_);}
	.st59{fill:url(#SVGID_53_);}
	.st60{fill:url(#SVGID_54_);}
	.st61{fill:url(#SVGID_55_);}
	.st62{fill:url(#SVGID_56_);}
	.st63{fill:url(#SVGID_57_);}
	.st64{fill:url(#SVGID_58_);}
	.st65{fill:url(#SVGID_59_);}
	.st66{fill:url(#SVGID_60_);}
	.st67{fill:url(#SVGID_61_);}
	.st68{fill:url(#SVGID_62_);}
	.st69{fill:url(#SVGID_63_);}
	.st70{fill:url(#SVGID_64_);}
	.st71{fill:url(#SVGID_65_);}
	.st72{fill:url(#SVGID_66_);}
	.st73{fill:url(#SVGID_67_);}
	.st74{fill:url(#SVGID_68_);}
	.st75{fill:url(#SVGID_69_);}
	.st76{fill:url(#SVGID_70_);}
	.st77{fill:url(#SVGID_71_);}
	.st78{fill:url(#SVGID_72_);}
	.st79{fill:url(#SVGID_73_);}
	.st80{fill:url(#SVGID_74_);}
	.st81{fill:url(#SVGID_75_);}
	.st82{fill:url(#SVGID_76_);}
	.st83{fill:url(#SVGID_77_);}
	.st84{fill:url(#SVGID_78_);}
	.st85{fill:url(#SVGID_79_);}
	.st86{fill:url(#SVGID_80_);}
	.st87{fill:url(#SVGID_81_);}
	.st88{fill:url(#SVGID_82_);}
	.st89{fill:url(#SVGID_83_);}
	.st90{fill:url(#SVGID_84_);}
	.st91{fill:url(#SVGID_85_);}
	.st92{fill:url(#SVGID_86_);}
	.st93{fill:url(#SVGID_87_);}
	.st94{fill:url(#SVGID_88_);}
	.st95{fill:url(#SVGID_89_);}
	.st96{fill:url(#SVGID_90_);}
	.st97{fill:url(#SVGID_91_);}
	.st98{fill:url(#SVGID_92_);}
	.st99{fill:url(#SVGID_93_);}
	.st100{fill:url(#SVGID_94_);}
	.st101{fill:url(#SVGID_95_);}
	.st102{fill:url(#SVGID_96_);}
	.st103{fill:url(#SVGID_97_);}
	.st104{fill:url(#SVGID_98_);}
	.st105{fill:url(#SVGID_99_);}
	.st106{fill:url(#SVGID_100_);}
	.st107{fill:url(#SVGID_101_);}
	.st108{fill:url(#SVGID_102_);}
	.st109{fill:url(#SVGID_103_);}
	.st110{fill:url(#SVGID_104_);}
	.st111{fill:url(#SVGID_105_);}
	.st112{fill:url(#SVGID_106_);}
	.st113{fill:url(#SVGID_107_);}
	.st114{fill:url(#SVGID_108_);}
	.st115{fill:url(#SVGID_109_);}
	.st116{fill:url(#SVGID_110_);}
	.st117{fill:url(#SVGID_111_);}
	.st118{fill:url(#SVGID_112_);}
	.st119{fill:url(#SVGID_113_);}
	.st120{fill:url(#SVGID_114_);}
	.st121{fill:url(#SVGID_115_);}
	.st122{fill:url(#SVGID_116_);}
	.st123{fill:url(#SVGID_117_);}
	.st124{fill:url(#SVGID_118_);}
	.st125{fill:url(#SVGID_119_);}
	.st126{fill:url(#SVGID_120_);}
	.st127{fill:url(#SVGID_121_);}
	.st128{fill:url(#SVGID_122_);}
	.st129{fill:url(#SVGID_123_);}
	.st130{fill:url(#SVGID_124_);}
	.st131{fill:url(#SVGID_125_);}
	.st132{fill:url(#SVGID_126_);}
	.st133{fill:url(#SVGID_127_);}
	.st134{fill:url(#SVGID_128_);}
	.st135{fill:url(#SVGID_129_);}
	.st136{fill:url(#SVGID_130_);}
	.st137{fill:url(#SVGID_131_);}
	.st138{fill:url(#SVGID_132_);}
	.st139{fill:url(#SVGID_133_);}
	.st140{fill:url(#SVGID_134_);}
	.st141{fill:url(#SVGID_135_);}
	.st142{fill:url(#SVGID_136_);}
	.st143{fill:url(#SVGID_137_);}
	.st144{fill:url(#SVGID_138_);}
	.st145{fill:url(#SVGID_139_);}
	.st146{fill:url(#SVGID_140_);}
	.st147{fill:url(#SVGID_141_);}
	.st148{fill:url(#SVGID_142_);}
	.st149{fill:url(#SVGID_143_);}
	.st150{fill:url(#SVGID_144_);}
	.st151{fill:url(#SVGID_145_);}
	.st152{fill:url(#SVGID_146_);}
	.st153{fill:url(#SVGID_147_);}
	.st154{fill:url(#SVGID_148_);}
	.st155{fill:url(#SVGID_149_);}
	.st156{fill:url(#SVGID_150_);}
	.st157{fill:url(#SVGID_151_);}
	.st158{fill:url(#SVGID_152_);}
	.st159{fill:url(#SVGID_153_);}
	.st160{fill:url(#SVGID_154_);}
	.st161{fill:url(#SVGID_155_);}
	.st162{fill:url(#SVGID_156_);}
	.st163{fill:url(#SVGID_157_);}
	.st164{fill:url(#SVGID_158_);}
	.st165{fill:url(#SVGID_159_);}
	.st166{fill:url(#SVGID_160_);}
	.st167{fill:url(#SVGID_161_);}
	.st168{fill:url(#SVGID_162_);}
	.st169{fill:url(#SVGID_163_);}
	.st170{fill:url(#SVGID_164_);}
	.st171{fill:url(#SVGID_165_);}
	.st172{fill:url(#SVGID_166_);}
	.st173{fill:#E1E1E1;}
	.st174{opacity:0.65;}
	.st175{opacity:0.4;}
	.st176{opacity:0.15;}
	.st177{opacity:8.000000e-02;}
	.st178{opacity:0;}
	.st179{opacity:0.5;}
	.st180{opacity:0.3;}
	.st181{opacity:0.1;}
	.st182{opacity:0.65;fill:#E1E1E1;}
	.st183{opacity:0.4;fill:#E1E1E1;}
	.st184{opacity:0.15;fill:#E1E1E1;}
	.st185{opacity:0.3;fill:#E1E1E1;}
	.st186{opacity:8.000000e-02;fill:#E1E1E1;}
	.st187{opacity:0;fill:#E1E1E1;}
	.st188{opacity:0.5;fill:#E1E1E1;}
	.st189{opacity:0.1;fill:#E1E1E1;}
	.st190{opacity:0.2;fill:#E1E1E1;}
	.st191{fill:#FFB527;}
	.st192{fill:#FC9206;}
	.st193{fill:#EB5E1F;}
	.st194{fill:#7C8E9B;}
	.st195{fill:#F8FCFF;}
	.st196{fill:#0C293A;}
	.st197{fill:#F1F6F8;}
	.st198{fill:#5ABB7B;}
	.st199{fill:#40A161;}
	.st200{fill:#FF5B4F;}
	.st201{fill:#6D6E70;}
	.st202{fill:none;stroke:#7C8E9B;stroke-miterlimit:10;}
	.st203{fill:url(#SVGID_167_);}
	.st204{fill:url(#SVGID_168_);}
	.st205{fill:url(#SVGID_169_);}
	.st206{fill:#FCA737;}
	.st207{opacity:0.7;fill:#F7A64D;}
	.st208{fill:none;stroke:#E78524;stroke-width:14;stroke-linecap:round;stroke-linejoin:round;stroke-miterlimit:10;}
	.st209{fill:#E78524;}
	.st210{opacity:0.26;fill:#FF5B4F;}
	.st211{fill:#D0D2D3;}
	.st212{fill:url(#SVGID_170_);}
	.st213{fill:url(#SVGID_171_);}
	.st214{fill:#DCDCDC;}
	.st215{fill:#FDC84F;}
	.st216{fill:url(#SVGID_172_);}
	.st217{fill:url(#SVGID_173_);}
	.st218{fill:url(#SVGID_174_);}
	.st219{fill:#E5504C;}
	.st220{fill:url(#SVGID_175_);}
	.st221{fill:url(#SVGID_176_);}
	.st222{fill:url(#SVGID_177_);}
	.st223{fill:url(#SVGID_178_);}
	.st224{fill:url(#SVGID_179_);}
	.st225{fill:url(#SVGID_180_);}
	.st226{fill:url(#SVGID_181_);}
	.st227{fill:url(#SVGID_182_);}
	.st228{fill:url(#SVGID_183_);}
	.st229{fill:url(#SVGID_184_);}
	.st230{fill:url(#SVGID_185_);}
	.st231{fill:#F49B31;}
	.st232{fill:url(#SVGID_186_);}
	.st233{fill:#DDDDDD;}
	.st234{fill:url(#SVGID_187_);}
	.st235{fill:url(#SVGID_188_);}
	.st236{fill:none;stroke:url(#SVGID_189_);stroke-width:7;stroke-linecap:round;stroke-linejoin:round;stroke-miterlimit:10;}
	.st237{fill:url(#SVGID_190_);}
	.st238{fill:url(#SVGID_191_);}
	.st239{fill:url(#SVGID_192_);}
	.st240{fill:url(#SVGID_193_);}
</style>
<circle class="st198" cx="209.1" cy="164.7" r="10.1"/>
<circle class="st200" cx="30.1" cy="213.3" r="17.4"/>
<circle class="st211" cx="42.1" cy="20.2" r="10.9"/>
<linearGradient id="SVGID_1_" gradientUnits="userSpaceOnUse" x1="97.9387" y1="93.2485" x2="140.4675" y2="93.2485">
	<stop  offset="0" style="stop-color:#FFC24E"/>
	<stop  offset="1" style="stop-color:#FFBB38"/>
</linearGradient>
<circle class="st0" cx="119.2" cy="93.2" r="21.3"/>
<linearGradient id="SVGID_2_" gradientUnits="userSpaceOnUse" x1="90.032" y1="177.2933" x2="150.9846" y2="177.2933">
	<stop  offset="0" style="stop-color:#FFC24E"/>
	<stop  offset="1" style="stop-color:#FFBB38"/>
</linearGradient>
<path class="st2" d="M112.3,126.2l-22.1,98.5c-1.2,5.3,2.8,10.2,8.2,10.2h44.1c5.4,0,9.4-5,8.2-10.2l-22.1-98.5
	C126.8,117.5,114.3,117.5,112.3,126.2z"/>
<g>
	<path class="st206" d="M148.6,129.2c-1.1,0-2.2-0.4-3.1-1.2c-1.8-1.7-1.9-4.6-0.2-6.4c13.3-13.9,14-27.4,12.2-36.2
		c-2.6-13.1-11.8-23.5-19.6-27c-2.3-1-3.3-3.7-2.3-6s3.7-3.3,6-2.3c9.6,4.3,21.5,16.7,24.8,33.5c2.1,10.9,1.3,27.5-14.6,44.1
		C151,128.8,149.8,129.2,148.6,129.2z"/>
</g>
<g>
	<path class="st206" d="M89.6,129.2c-1.2,0-2.4-0.5-3.3-1.4c-15.9-16.7-16.7-33.2-14.6-44.1c3.3-16.8,15.1-29.1,24.8-33.5
		c2.3-1,4.9,0,6,2.3c1,2.3,0,4.9-2.3,6c-7.8,3.5-17.1,13.9-19.6,27c-1.7,8.8-1,22.3,12.2,36.2c1.7,1.8,1.6,4.6-0.2,6.4
		C91.8,128.8,90.7,129.2,89.6,129.2z"/>
</g>
<g>
	<path class="st206" d="M162.4,145.7c-1.1,0-2.2-0.4-3.1-1.2c-1.8-1.7-1.9-4.6-0.2-6.4c20.1-21,21.1-41.5,18.5-55
		c-3.9-19.9-18-35.7-30-41.1c-2.3-1-3.3-3.7-2.3-6c1-2.3,3.7-3.3,6-2.3c13.6,6.2,30.5,23.7,35.1,47.6c3,15.5,1.9,39.1-20.8,62.9
		C164.7,145.2,163.5,145.7,162.4,145.7z"/>
</g>
<g>
	<path class="st206" d="M75.8,145.7c-1.2,0-2.4-0.5-3.3-1.4c-22.7-23.8-23.9-47.4-20.8-62.9c4.7-23.9,21.5-41.4,35.1-47.6
		c2.3-1,4.9,0,6,2.3c1,2.3,0,4.9-2.3,6c-12,5.4-26.1,21.3-30,41.1C58,96.6,59,117,79.1,138.1c1.7,1.8,1.6,4.6-0.2,6.4
		C78.1,145.3,76.9,145.7,75.8,145.7z"/>
</g>
</svg>
