<?xml version="1.0" encoding="utf-8"?>
<!-- Generator: Adobe Illustrator 21.0.0, SVG Export Plug-In . SVG Version: 6.00 Build 0)  -->
<svg version="1.1" id="Layer_1" xmlns="http://www.w3.org/2000/svg" xmlns:xlink="http://www.w3.org/1999/xlink" x="0px" y="0px"
	 viewBox="0 0 235.8 235.8" style="enable-background:new 0 0 235.8 235.8;" xml:space="preserve">
<style type="text/css">
	.st0{fill:url(#SVGID_1_);}
	.st1{fill:#F08D20;}
	.st2{fill:url(#SVGID_2_);}
	.st3{fill:#F8F9F9;}
	.st4{opacity:0.8;fill:none;stroke:#F8F9F9;stroke-width:8;stroke-miterlimit:10;}
	.st5{opacity:0.6;fill:none;stroke:#F8F9F9;stroke-width:6;stroke-miterlimit:10;}
	.st6{opacity:0.4;fill:none;stroke:#F8F9F9;stroke-width:3;stroke-miterlimit:10;}
	.st7{fill:#FFFFFF;}
	.st8{fill:#CCCBCB;}
	.st9{fill:url(#SVGID_3_);}
	.st10{fill:url(#SVGID_4_);}
	.st11{fill:url(#SVGID_5_);}
	.st12{fill:url(#SVGID_6_);}
	.st13{fill:url(#SVGID_7_);}
	.st14{fill:url(#SVGID_8_);}
	.st15{fill:url(#SVGID_9_);}
	.st16{fill:url(#SVGID_10_);}
	.st17{fill:url(#SVGID_11_);}
	.st18{fill:url(#SVGID_12_);}
	.st19{fill:url(#SVGID_13_);}
	.st20{fill:url(#SVGID_14_);}
	.st21{fill:url(#SVGID_15_);}
	.st22{fill:url(#SVGID_16_);}
	.st23{fill:url(#SVGID_17_);}
	.st24{fill:url(#SVGID_18_);}
	.st25{fill:url(#SVGID_19_);}
	.st26{fill:url(#SVGID_20_);}
	.st27{fill:url(#SVGID_21_);}
	.st28{fill:url(#SVGID_22_);}
	.st29{fill:url(#SVGID_23_);}
	.st30{fill:url(#SVGID_24_);}
	.st31{fill:url(#SVGID_25_);}
	.st32{fill:url(#SVGID_26_);}
	.st33{fill:url(#SVGID_27_);}
	.st34{fill:url(#SVGID_28_);}
	.st35{fill:url(#SVGID_29_);}
	.st36{fill:url(#SVGID_30_);}
	.st37{fill:url(#SVGID_31_);}
	.st38{fill:url(#SVGID_32_);}
	.st39{fill:url(#SVGID_33_);}
	.st40{fill:url(#SVGID_34_);}
	.st41{fill:url(#SVGID_35_);}
	.st42{fill:url(#SVGID_36_);}
	.st43{fill:url(#SVGID_37_);}
	.st44{fill:url(#SVGID_38_);}
	.st45{fill:url(#SVGID_39_);}
	.st46{fill:url(#SVGID_40_);}
	.st47{fill:url(#SVGID_41_);}
	.st48{fill:url(#SVGID_42_);}
	.st49{fill:url(#SVGID_43_);}
	.st50{fill:url(#SVGID_44_);}
	.st51{fill:url(#SVGID_45_);}
	.st52{fill:url(#SVGID_46_);}
	.st53{fill:url(#SVGID_47_);}
	.st54{fill:url(#SVGID_48_);}
	.st55{fill:url(#SVGID_49_);}
	.st56{fill:url(#SVGID_50_);}
	.st57{fill:url(#SVGID_51_);}
	.st58{fill:url(#SVGID_52_);}
	.st59{fill:url(#SVGID_53_);}
	.st60{fill:url(#SVGID_54_);}
	.st61{fill:url(#SVGID_55_);}
	.st62{fill:url(#SVGID_56_);}
	.st63{fill:url(#SVGID_57_);}
	.st64{fill:url(#SVGID_58_);}
	.st65{fill:url(#SVGID_59_);}
	.st66{fill:url(#SVGID_60_);}
	.st67{fill:url(#SVGID_61_);}
	.st68{fill:url(#SVGID_62_);}
	.st69{fill:url(#SVGID_63_);}
	.st70{fill:url(#SVGID_64_);}
	.st71{fill:url(#SVGID_65_);}
	.st72{fill:url(#SVGID_66_);}
	.st73{fill:url(#SVGID_67_);}
	.st74{fill:url(#SVGID_68_);}
	.st75{fill:url(#SVGID_69_);}
	.st76{fill:url(#SVGID_70_);}
	.st77{fill:url(#SVGID_71_);}
	.st78{fill:url(#SVGID_72_);}
	.st79{fill:url(#SVGID_73_);}
	.st80{fill:url(#SVGID_74_);}
	.st81{fill:url(#SVGID_75_);}
	.st82{fill:url(#SVGID_76_);}
	.st83{fill:url(#SVGID_77_);}
	.st84{fill:url(#SVGID_78_);}
	.st85{fill:url(#SVGID_79_);}
	.st86{fill:url(#SVGID_80_);}
	.st87{fill:url(#SVGID_81_);}
	.st88{fill:url(#SVGID_82_);}
	.st89{fill:url(#SVGID_83_);}
	.st90{fill:url(#SVGID_84_);}
	.st91{fill:url(#SVGID_85_);}
	.st92{fill:url(#SVGID_86_);}
	.st93{fill:url(#SVGID_87_);}
	.st94{fill:url(#SVGID_88_);}
	.st95{fill:url(#SVGID_89_);}
	.st96{fill:url(#SVGID_90_);}
	.st97{fill:url(#SVGID_91_);}
	.st98{fill:url(#SVGID_92_);}
	.st99{fill:url(#SVGID_93_);}
	.st100{fill:url(#SVGID_94_);}
	.st101{fill:url(#SVGID_95_);}
	.st102{fill:url(#SVGID_96_);}
	.st103{fill:url(#SVGID_97_);}
	.st104{fill:url(#SVGID_98_);}
	.st105{fill:url(#SVGID_99_);}
	.st106{fill:url(#SVGID_100_);}
	.st107{fill:url(#SVGID_101_);}
	.st108{fill:url(#SVGID_102_);}
	.st109{fill:url(#SVGID_103_);}
	.st110{fill:url(#SVGID_104_);}
	.st111{fill:url(#SVGID_105_);}
	.st112{fill:url(#SVGID_106_);}
	.st113{fill:url(#SVGID_107_);}
	.st114{fill:url(#SVGID_108_);}
	.st115{fill:url(#SVGID_109_);}
	.st116{fill:url(#SVGID_110_);}
	.st117{fill:url(#SVGID_111_);}
	.st118{fill:url(#SVGID_112_);}
	.st119{fill:url(#SVGID_113_);}
	.st120{fill:url(#SVGID_114_);}
	.st121{fill:url(#SVGID_115_);}
	.st122{fill:url(#SVGID_116_);}
	.st123{fill:url(#SVGID_117_);}
	.st124{fill:url(#SVGID_118_);}
	.st125{fill:url(#SVGID_119_);}
	.st126{fill:url(#SVGID_120_);}
	.st127{fill:url(#SVGID_121_);}
	.st128{fill:url(#SVGID_122_);}
	.st129{fill:url(#SVGID_123_);}
	.st130{fill:url(#SVGID_124_);}
	.st131{fill:url(#SVGID_125_);}
	.st132{fill:url(#SVGID_126_);}
	.st133{fill:url(#SVGID_127_);}
	.st134{fill:url(#SVGID_128_);}
	.st135{fill:url(#SVGID_129_);}
	.st136{fill:url(#SVGID_130_);}
	.st137{fill:url(#SVGID_131_);}
	.st138{fill:url(#SVGID_132_);}
	.st139{fill:url(#SVGID_133_);}
	.st140{fill:url(#SVGID_134_);}
	.st141{fill:url(#SVGID_135_);}
	.st142{fill:url(#SVGID_136_);}
	.st143{fill:url(#SVGID_137_);}
	.st144{fill:url(#SVGID_138_);}
	.st145{fill:url(#SVGID_139_);}
	.st146{fill:url(#SVGID_140_);}
	.st147{fill:url(#SVGID_141_);}
	.st148{fill:url(#SVGID_142_);}
	.st149{fill:url(#SVGID_143_);}
	.st150{fill:url(#SVGID_144_);}
	.st151{fill:url(#SVGID_145_);}
	.st152{fill:url(#SVGID_146_);}
	.st153{fill:url(#SVGID_147_);}
	.st154{fill:url(#SVGID_148_);}
	.st155{fill:url(#SVGID_149_);}
	.st156{fill:url(#SVGID_150_);}
	.st157{fill:url(#SVGID_151_);}
	.st158{fill:url(#SVGID_152_);}
	.st159{fill:url(#SVGID_153_);}
	.st160{fill:url(#SVGID_154_);}
	.st161{fill:url(#SVGID_155_);}
	.st162{fill:url(#SVGID_156_);}
	.st163{fill:url(#SVGID_157_);}
	.st164{fill:url(#SVGID_158_);}
	.st165{fill:url(#SVGID_159_);}
	.st166{fill:url(#SVGID_160_);}
	.st167{fill:url(#SVGID_161_);}
	.st168{fill:url(#SVGID_162_);}
	.st169{fill:url(#SVGID_163_);}
	.st170{fill:url(#SVGID_164_);}
	.st171{fill:url(#SVGID_165_);}
	.st172{fill:url(#SVGID_166_);}
	.st173{fill:#E1E1E1;}
	.st174{opacity:0.65;}
	.st175{opacity:0.4;}
	.st176{opacity:0.15;}
	.st177{opacity:8.000000e-02;}
	.st178{opacity:0;}
	.st179{opacity:0.5;}
	.st180{opacity:0.3;}
	.st181{opacity:0.1;}
	.st182{opacity:0.65;fill:#E1E1E1;}
	.st183{opacity:0.4;fill:#E1E1E1;}
	.st184{opacity:0.15;fill:#E1E1E1;}
	.st185{opacity:0.3;fill:#E1E1E1;}
	.st186{opacity:8.000000e-02;fill:#E1E1E1;}
	.st187{opacity:0;fill:#E1E1E1;}
	.st188{opacity:0.5;fill:#E1E1E1;}
	.st189{opacity:0.1;fill:#E1E1E1;}
	.st190{opacity:0.2;fill:#E1E1E1;}
	.st191{fill:#FFB527;}
	.st192{fill:#FC9206;}
	.st193{fill:#EB5E1F;}
	.st194{fill:#7C8E9B;}
	.st195{fill:#F8FCFF;}
	.st196{fill:#0C293A;}
	.st197{fill:#F1F6F8;}
	.st198{fill:#5ABB7B;}
	.st199{fill:#40A161;}
	.st200{fill:#FF5B4F;}
	.st201{fill:#6D6E70;}
	.st202{fill:none;stroke:#7C8E9B;stroke-miterlimit:10;}
	.st203{fill:url(#SVGID_167_);}
	.st204{fill:url(#SVGID_168_);}
	.st205{fill:url(#SVGID_169_);}
	.st206{fill:#FCA737;}
	.st207{opacity:0.7;fill:#F7A64D;}
	.st208{fill:none;stroke:#E78524;stroke-width:14;stroke-linecap:round;stroke-linejoin:round;stroke-miterlimit:10;}
	.st209{fill:#E78524;}
	.st210{opacity:0.26;fill:#FF5B4F;}
	.st211{fill:#D0D2D3;}
	.st212{fill:url(#SVGID_170_);}
	.st213{fill:url(#SVGID_171_);}
	.st214{fill:#DCDCDC;}
	.st215{fill:#FDC84F;}
	.st216{fill:url(#SVGID_172_);}
	.st217{fill:url(#SVGID_173_);}
	.st218{fill:url(#SVGID_174_);}
	.st219{fill:#E5504C;}
	.st220{fill:url(#SVGID_175_);}
	.st221{fill:url(#SVGID_176_);}
	.st222{fill:url(#SVGID_177_);}
	.st223{fill:url(#SVGID_178_);}
	.st224{fill:url(#SVGID_179_);}
	.st225{fill:url(#SVGID_180_);}
	.st226{fill:url(#SVGID_181_);}
	.st227{fill:url(#SVGID_182_);}
	.st228{fill:url(#SVGID_183_);}
	.st229{fill:url(#SVGID_184_);}
	.st230{fill:url(#SVGID_185_);}
	.st231{fill:#F49B31;}
	.st232{fill:url(#SVGID_186_);}
	.st233{fill:#DDDDDD;}
	.st234{fill:url(#SVGID_187_);}
	.st235{fill:url(#SVGID_188_);}
	.st236{fill:none;stroke:url(#SVGID_189_);stroke-width:7;stroke-linecap:round;stroke-linejoin:round;stroke-miterlimit:10;}
	.st237{fill:url(#SVGID_190_);}
	.st238{fill:url(#SVGID_191_);}
	.st239{fill:url(#SVGID_192_);}
	.st240{fill:url(#SVGID_193_);}
</style>
<linearGradient id="SVGID_1_" gradientUnits="userSpaceOnUse" x1="64.8456" y1="99.2718" x2="213.7424" y2="192.7587">
	<stop  offset="0" style="stop-color:#FFD467"/>
	<stop  offset="1" style="stop-color:#FFC436"/>
</linearGradient>
<path class="st0" d="M161.4,231h-85c-6.3,0-11.5-5.1-11.5-11.5V46.9c0-6.3,5.1-11.5,11.5-11.5h74.4h10.5c6.3,0,11.5,5.1,11.5,11.5
	v172.6C172.9,225.9,167.7,231,161.4,231L161.4,231z M161.4,231"/>
<path class="st206" d="M129,213.2c0,5.6-4.5,10.1-10.1,10.1c-5.6,0-10.1-4.5-10.1-10.1c0-5.6,4.5-10.1,10.1-10.1
	C124.5,203.1,129,207.6,129,213.2L129,213.2z M129,213.2"/>
<rect x="65" y="57" class="st207" width="107.9" height="138.8"/>
<path class="st206" d="M128.1,49.5h-18.3c-1.4,0-2.5-1.1-2.5-2.5v0c0-1.4,1.1-2.5,2.5-2.5h18.3c1.4,0,2.5,1.1,2.5,2.5v0
	C130.6,48.3,129.5,49.5,128.1,49.5z"/>
<circle class="st200" cx="41" cy="205" r="7.6"/>
<circle class="st198" cx="16.7" cy="98.3" r="13.1"/>
<circle class="st211" cx="209.8" cy="22.4" r="16.1"/>
<circle class="st200" cx="171.8" cy="126.7" r="41.7"/>
<g>
	<g>
		<g>
			<path class="st7" d="M177.3,92c-1.3,2.9-1.9,6-2.8,9c-0.3,0.8-0.7,1.5-1.4,2c-3,2.2-6,4.4-8.9,6.6c-1.7,1.3-1.7,2.4-0.2,3.8
				c2,1.8,4,3.5,6,5.2c0.8,0.7,1.2,1.4,1.1,2.4c-0.1,0.5,0,1,0,1.5c0,1.9,0.6,2.5,2.6,2.6c4.3,0.1,8.5,0.2,12.8,0.3
				c1.2,0,1.5,0.3,1.5,1.5c-0.2,4.7-3.2,8.5-7.9,10c-1.2,0.4-1.9,1-1.8,2.2c0.1,1,0.7,1.6,1.7,1.8c0.4,0.1,0.9,0,1.3-0.1
				c7.3-1.9,12.1-10,10.4-17.4c-0.3-1.5-1.3-1.9-2.7-1.9c-4.2-0.1-8.4-0.2-12.6-0.3c-1.1,0-1.4-0.3-1.3-1.3c0.2-1.6-0.5-2.7-1.7-3.7
				c-1.4-1.1-2.7-2.4-4.2-3.6c-0.9-0.7-1-1.1,0-1.9c2.4-1.7,4.7-3.5,7.1-5.2c0.9-0.6,1.4-1.4,1.7-2.5c0.7-2.7,1.4-5.3,2.3-8
				c0.5-1.7,0.1-2.8-1.5-3.4C178.4,91.7,177.9,91.8,177.3,92z"/>
			
				<ellipse transform="matrix(0.9712 -0.2383 0.2383 0.9712 -18.6792 47.2991)" class="st7" cx="186.3" cy="100.9" rx="3.2" ry="3.2"/>
		</g>
	</g>
	<g>
		<g>
			<path class="st7" d="M167.1,142.9c-0.6,0.2-1.3,0-1.9-0.5c-6-5.5-5-12.3-3.6-15.2c0.5-1,1.7-1.4,2.7-0.9c1,0.5,1.4,1.7,0.9,2.7
				c-0.1,0.3-2.5,5.7,2.7,10.4c0.8,0.8,0.9,2,0.1,2.9C167.8,142.6,167.4,142.8,167.1,142.9z"/>
		</g>
		<g>
			<path class="st7" d="M163.7,151.6c-0.5,0.1-1.1,0-1.6-0.3c-17.6-11.9-7.1-28.7-7-28.9c0.6-0.9,1.9-1.2,2.8-0.6
				c0.9,0.6,1.2,1.9,0.6,2.8c-0.4,0.6-8.4,13.7,5.8,23.3c0.9,0.6,1.2,1.9,0.5,2.8C164.6,151.2,164.2,151.5,163.7,151.6z"/>
		</g>
		<g>
			<path class="st7" d="M158.8,158.6c-0.6,0.1-1.2,0-1.7-0.3c-22.8-17.1-9.9-39.9-9.7-40.2c0.6-1,1.8-1.3,2.8-0.7
				c1,0.6,1.3,1.8,0.7,2.8c-0.5,0.8-11.2,20,8.7,34.9c0.9,0.7,1.1,2,0.4,2.9C159.6,158.2,159.2,158.5,158.8,158.6z"/>
		</g>
	</g>
</g>
</svg>
